<?xml version="1.0" encoding="utf-8"?>
<!-- Generator: Adobe Illustrator 16.0.0, SVG Export Plug-In . SVG Version: 6.00 Build 0)  -->
<!DOCTYPE svg PUBLIC "-//W3C//DTD SVG 1.1//EN" "http://www.w3.org/Graphics/SVG/1.1/DTD/svg11.dtd">
<svg version="1.1" id="Layer_1" xmlns="http://www.w3.org/2000/svg" xmlns:xlink="http://www.w3.org/1999/xlink" x="0px" y="0px"
	 width="58.666px" height="58.667px" viewBox="0 0 58.666 58.667" enable-background="new 0 0 58.666 58.667" xml:space="preserve">
<g id="Layer_2">
	<g id="Layer_1-2">
		<g id="CSHP53.tif">
			<g>
				<path d="M28.687,14.986h1.304c0.033,0.022,0.07,0.04,0.109,0.051c3.222,0.396,5.607,3.193,5.488,6.439c0,0.258,0,0.536,0,0.827
					c0.353,0,0.667,0,0.979,0c1.69,0.042,3.088,1.328,3.27,3.009c0.07,0.7,0.088,1.409,0.125,2.114
					c0.123,2.528,0.257,2.442,0.365,4.972c0.108,2.529,0.258,5.1,0.353,7.652c0.077,2.105-1.422,3.627-3.523,3.63
					c-5.211,0-10.424,0-15.638,0c-0.303,0.004-0.605-0.028-0.901-0.093c-1.631-0.366-2.747-1.87-2.625-3.537
					c0.111-2.768,0.258-5.538,0.392-8.304c0.137-2.898,0.257-3.184,0.412-6.08c0.108-2.044,1.546-3.375,3.606-3.377h0.686
					c0-0.415,0-0.772,0-1.151c0.033-2.527,1.595-4.781,3.948-5.701C27.579,15.261,28.129,15.109,28.687,14.986z M33.493,22.278
					c0.232-2.674-0.865-4.01-2.197-4.706c-1.422-0.816-3.2-0.674-4.475,0.358c-1.456,1.084-1.803,2.625-1.624,4.348H33.493z
					 M23.467,26.657c0,0.569,0.461,1.03,1.029,1.03c0.576,0,1.042-0.466,1.042-1.042s-0.466-1.042-1.042-1.042
					c-0.568,0-1.029,0.461-1.03,1.03c0,0.011,0.001,0.021,0.001,0.031V26.657z M35.211,26.657c0.014-0.568-0.437-1.041-1.006-1.054
					c-0.004,0-0.006,0-0.009,0c-0.574-0.006-1.047,0.455-1.053,1.031c-0.006,0.575,0.455,1.047,1.03,1.053
					c0.564,0.005,1.026-0.448,1.037-1.012V26.657z"/>
			</g>
		</g>
	</g>
</g>
<g>
	<path d="M45.532,58.427H13.134c-7.109,0-12.894-5.784-12.894-12.894v-32.4c0-7.11,5.784-12.894,12.894-12.894h32.398
		c7.109,0,12.894,5.784,12.894,12.894v32.4C58.426,52.644,52.642,58.427,45.532,58.427z M13.134,2.224
		c-6.016,0-10.91,4.894-10.91,10.91v32.4c0,6.016,4.895,10.91,10.91,10.91h32.398c6.016,0,10.91-4.895,10.91-10.91v-32.4
		c0-6.016-4.895-10.91-10.91-10.91H13.134z"/>
</g>
</svg>
