<?xml version="1.0" encoding="utf-8"?>
<!-- Generator: Adobe Illustrator 16.0.0, SVG Export Plug-In . SVG Version: 6.00 Build 0)  -->
<!DOCTYPE svg PUBLIC "-//W3C//DTD SVG 1.1//EN" "http://www.w3.org/Graphics/SVG/1.1/DTD/svg11.dtd">
<svg version="1.1" id="Layer_1" xmlns="http://www.w3.org/2000/svg" xmlns:xlink="http://www.w3.org/1999/xlink" x="0px" y="0px"
	 width="329.027px" height="329.027px" viewBox="0 0 329.027 329.027" enable-background="new 0 0 329.027 329.027"
	 xml:space="preserve">
<g>
	<path fill-rule="evenodd" clip-rule="evenodd" fill="#FFFFFF" d="M312.319,329.027c-3.214,0-6.427,0-9.64,0
		c-6.165-2.091-10.609-6.479-15.081-10.961c-40.07-40.16-80.202-80.258-120.319-120.37c-0.879-0.88-1.801-1.718-3.049-2.905
		c-1.043,1.209-1.818,2.235-2.719,3.137c-40.257,40.275-80.545,80.521-120.761,120.837c-4.257,4.267-8.575,8.28-14.403,10.263
		c-3.213,0-6.426,0-9.639,0c-4.367-1.56-8.76-3.311-11.451-7.248c-2.127-3.112-3.531-6.717-5.258-10.103c0-2.356,0-4.713,0-7.069
		c1.454-6.44,5.548-11.084,10.089-15.61c40.558-40.434,81.023-80.958,121.544-121.428c0.883-0.882,2.083-1.444,3.762-2.58
		c-1.922-1.523-3.021-2.231-3.926-3.135C91.035,121.45,50.646,81,10.161,40.646C5.618,36.117,1.543,31.463,0,25.063
		c0-2.356,0-4.712,0-7.069c1.722-5.982,4.516-11.35,10.148-14.425c3.01-1.644,6.5-2.407,9.773-3.568c0.857,0,1.713,0,2.57,0
		c7.822,0.957,13.234,5.727,18.559,11.073c40.203,40.375,80.531,80.625,120.824,120.91c0.816,0.816,1.672,1.592,3.263,3.1
		c0.813-1.196,1.385-2.405,2.275-3.296c40.188-40.238,80.443-80.409,120.571-120.708C293.306,5.733,298.704,0.943,306.535,0
		c0.856,0,1.714,0,2.57,0c3.883,1.588,8.032,2.732,11.582,4.874c4.771,2.877,6.712,8.003,8.34,13.12c0,2.356,0,4.712,0,7.069
		c-1.572,6.51-5.76,11.213-10.372,15.811c-40.482,40.355-80.87,80.805-121.319,121.192c-0.874,0.873-2.146,1.346-3.677,2.275
		c1.966,1.668,2.924,2.372,3.754,3.202c40.504,40.485,80.969,81.009,121.53,121.437c4.549,4.535,8.586,9.214,10.084,15.629
		c0,2.356,0,4.713,0,7.069C326.584,320.47,321.159,326.393,312.319,329.027z"/>
</g>
</svg>
