<?xml version="1.0" encoding="utf-8"?>
<!-- Generator: Adobe Illustrator 16.0.0, SVG Export Plug-In . SVG Version: 6.00 Build 0)  -->
<!DOCTYPE svg PUBLIC "-//W3C//DTD SVG 1.1//EN" "http://www.w3.org/Graphics/SVG/1.1/DTD/svg11.dtd">
<svg version="1.1" id="Layer_1" xmlns="http://www.w3.org/2000/svg" xmlns:xlink="http://www.w3.org/1999/xlink" x="0px" y="0px"
	 width="50px" height="50px" viewBox="0 0 50 50" enable-background="new 0 0 50 50" xml:space="preserve">
<circle fill="#FFFFFF" cx="25" cy="25" r="24.75"/>
<path fill-rule="evenodd" clip-rule="evenodd" fill="#3A52A4" d="M14.71,23.91c0.839,0.011,1.443,0.258,1.957,0.725
	c1.503,1.367,3.007,2.733,4.509,4.104c0.521,0.474,0.779,0.465,1.238-0.055c4.685-5.293,9.37-10.585,14.055-15.881
	c0.225-0.252,0.483-0.401,0.831-0.301c0.327,0.093,0.537,0.318,0.554,0.65c0.01,0.183-0.063,0.394-0.161,0.554
	c-2.176,3.517-4.359,7.031-6.541,10.544c-2.463,3.967-4.93,7.933-7.388,11.902c-0.519,0.836-1.234,1.347-2.231,1.377
	c-0.791,0.025-1.454-0.288-1.954-0.9c-2.277-2.781-4.558-5.563-6.817-8.358c-0.696-0.863-0.8-1.848-0.317-2.845
	C12.922,24.433,13.762,23.96,14.71,23.91z"/>
</svg>
