<?xml version="1.0" encoding="utf-8"?>
<!-- Generator: Adobe Illustrator 16.0.0, SVG Export Plug-In . SVG Version: 6.00 Build 0)  -->
<!DOCTYPE svg PUBLIC "-//W3C//DTD SVG 1.1//EN" "http://www.w3.org/Graphics/SVG/1.1/DTD/svg11.dtd">
<svg version="1.1" id="Layer_1" xmlns="http://www.w3.org/2000/svg" xmlns:xlink="http://www.w3.org/1999/xlink" x="0px" y="0px"
	 width="58.666px" height="58.667px" viewBox="0 0 58.666 58.667" enable-background="new 0 0 58.666 58.667" xml:space="preserve">
<g>
	<path d="M45.532,58.427H13.134c-7.109,0-12.894-5.784-12.894-12.894v-32.4c0-7.11,5.784-12.894,12.894-12.894h32.398
		c7.109,0,12.894,5.784,12.894,12.894v32.4C58.426,52.644,52.642,58.427,45.532,58.427z M13.134,2.224
		c-6.016,0-10.91,4.894-10.91,10.91v32.4c0,6.016,4.895,10.91,10.91,10.91h32.398c6.016,0,10.91-4.895,10.91-10.91v-32.4
		c0-6.016-4.895-10.91-10.91-10.91H13.134z"/>
</g>
<g id="Layer_2_1_">
	<g id="Layer_1-2_1_">
		<g id="_3ob1Tc.tif">
			<path d="M29.892,15.057c0.727,0.174,1.474,0.258,2.149,0.537c2.562,1.059,4.117,2.971,4.602,5.714
				c0.524,3.078-0.974,6.147-3.724,7.628c-2.684,1.453-5.358,1.292-7.86-0.448c-1.956-1.301-3.127-3.498-3.117-5.846
				c-0.054-2.719,1.124-4.855,3.373-6.375c0.984-0.662,2.121-1.064,3.302-1.169c0.055-0.011,0.108-0.025,0.161-0.041H29.892z"/>
			<path d="M29.813,43.61c-3.763-0.031-6.704-0.969-9.302-2.906c-1.521-1.129-2.808-2.543-3.791-4.163
				c-0.168-0.22-0.202-0.513-0.091-0.764c1.293-2.73,3.391-4.468,6.335-5.197c0.205-0.051,0.418-0.078,0.627-0.123
				c0.434-0.088,0.885,0.021,1.23,0.298c1.42,1.011,3.14,1.509,4.88,1.414c1.365-0.059,2.68-0.383,3.773-1.189
				c0.843-0.623,1.647-0.577,2.546-0.325c2.377,0.649,4.401,2.209,5.636,4.342c0.582,0.968,0.605,0.995,0,1.918
				c-1.437,2.221-3.451,4.007-5.829,5.169C33.63,43.146,31.51,43.615,29.813,43.61z"/>
		</g>
	</g>
</g>
</svg>
