<?xml version="1.0" encoding="utf-8"?>
<!-- Generator: Adobe Illustrator 16.0.0, SVG Export Plug-In . SVG Version: 6.00 Build 0)  -->
<!DOCTYPE svg PUBLIC "-//W3C//DTD SVG 1.1//EN" "http://www.w3.org/Graphics/SVG/1.1/DTD/svg11.dtd">
<svg version="1.1" id="Layer_1" xmlns="http://www.w3.org/2000/svg" xmlns:xlink="http://www.w3.org/1999/xlink" x="0px" y="0px"
	 width="383.714px" height="409.637px" viewBox="0 0 383.714 409.637" enable-background="new 0 0 383.714 409.637"
	 xml:space="preserve">
<g>
	<path fill-rule="evenodd" clip-rule="evenodd" fill="#B5B5B5" d="M94.889,409.637c0-11.963,0-23.928,0-36.293
		c-12.653,0-24.859,0-37.332,0c0-8.463,0-16.525,0-25.076c12.212,0,24.522,0,37.297,0c0-10.832,0.074-21.188-0.144-31.535
		c-0.017-0.816-1.986-2.111-3.19-2.307c-24.369-3.951-45.296-14.576-62.155-32.619c-20.95-22.42-31.274-49.121-29.074-79.826
		c3.104-43.312,25.241-73.993,64.284-92.438c13.783-6.512,28.612-9.179,43.872-8.863c2.827,0.059,4.203-0.97,5.631-3.235
		c21.21-33.666,51.782-51.612,91.533-52.324c27.713-0.497,52.154,9.249,72.846,27.925c1.473,1.33,2.922,2.687,4.712,4.333
		c18.188-17.241,36.222-34.336,55.044-52.179c-9.861,0-18.768,0-28.104,0c0-8.755,0-16.977,0-25.199c24.536,0,49.07,0,73.606,0
		c0,23.711,0,47.421,0,71.434c-8.453,0-16.518,0-25.209,0c0-9.871,0-19.742,0-29.613c-0.328-0.12-0.656-0.24-0.984-0.36
		c-19.577,18.56-39.154,37.118-58.377,55.344c3.323,8.104,7.005,15.66,9.574,23.576c16.251,50.056-7.821,105.712-55.29,128.659
		c-15.021,7.26-30.815,10.984-47.448,10.898c-3.373-0.018-5.203,0.994-6.958,3.814c-17.711,28.477-43.309,45.174-76.302,50.77
		c-1.058,0.18-2.724,1.537-2.739,2.371c-0.189,10.23-0.123,20.469-0.123,31.109c13.091,0,25.819,0,38.856,0
		c0,8.453,0,16.508,0,25.168c-12.744,0-25.566,0-39.023,0c0,12.553,0,24.51,0,36.467
		C111.423,409.637,103.156,409.637,94.889,409.637z M139.191,105.277c27.152,9.048,48.013,25.571,61.921,50.347
		c13.869,24.707,17.032,51.089,10.644,78.679c29.921-0.426,66.481-23.777,75.201-64.951c8.171-38.583-13.425-78.94-49.699-93.25
		C198.801,60.93,158.362,76.544,139.191,105.277z M174.574,255.365c-27.141-9.053-48.022-25.557-62-50.299
		c-14.023-24.823-16.954-51.35-10.674-79.07c-36.771,1.938-71.318,30.722-76.325,72.083c-4.485,37.052,15.941,72.077,50.663,86.198
		C112.062,298.846,153.008,286.732,174.574,255.365z M185.97,232.047c15.523-48.486-18.557-95.878-58.42-103.296
		C112.868,174.597,142.992,222.473,185.97,232.047z"/>
</g>
</svg>
