<?xml version="1.0" encoding="utf-8"?>
<!-- Generator: Adobe Illustrator 16.0.0, SVG Export Plug-In . SVG Version: 6.00 Build 0)  -->
<!DOCTYPE svg PUBLIC "-//W3C//DTD SVG 1.1//EN" "http://www.w3.org/Graphics/SVG/1.1/DTD/svg11.dtd">
<svg version="1.1" id="Layer_1" xmlns="http://www.w3.org/2000/svg" xmlns:xlink="http://www.w3.org/1999/xlink" x="0px" y="0px"
	 width="145.028px" height="225.005px" viewBox="0 0 145.028 225.005" enable-background="new 0 0 145.028 225.005"
	 xml:space="preserve">
<g>
	<path fill-rule="evenodd" clip-rule="evenodd" fill="#4C4C4C" d="M103.7,112.192c-10.406-8.92-20.611-17.67-30.82-26.418
		C51.505,67.455,30.146,49.118,8.739,30.836c-4.484-3.83-7.1-8.454-6.406-14.426c0.703-6.054,3.923-10.474,9.636-12.821
		c5.871-2.412,11.334-1.404,16.127,2.616c7.97,6.686,15.821,13.513,23.724,20.28c28.264,24.201,56.508,48.426,84.809,72.581
		c5.27,4.497,8.321,9.904,6.285,16.763c-0.952,3.212-3.009,6.589-5.534,8.767c-36.516,31.498-73.185,62.819-109.85,94.145
		c-6.914,5.906-16.69,5.112-22.318-1.635c-5.766-6.915-4.775-16.318,2.449-22.511c31.041-26.604,62.099-53.187,93.147-79.782
		C101.718,114.031,102.589,113.201,103.7,112.192z"/>
</g>
</svg>
