<?xml version="1.0" encoding="utf-8"?>
<!-- Generator: Adobe Illustrator 16.0.0, SVG Export Plug-In . SVG Version: 6.00 Build 0)  -->
<!DOCTYPE svg PUBLIC "-//W3C//DTD SVG 1.1//EN" "http://www.w3.org/Graphics/SVG/1.1/DTD/svg11.dtd">
<svg version="1.1" id="Layer_1" xmlns="http://www.w3.org/2000/svg" xmlns:xlink="http://www.w3.org/1999/xlink" x="0px" y="0px"
	 width="50px" height="50px" viewBox="0 0 50 50" enable-background="new 0 0 50 50" xml:space="preserve">
<circle fill="#FFFFFF" cx="25" cy="25" r="24.75"/>
<g>
	<path d="M27.988,22.433c1.667,0.492,3.019,1.354,4.065,2.584c1.042,1.231,1.563,2.717,1.563,4.452c0,2.529-0.847,4.513-2.548,5.942
		c-1.699,1.431-3.781,2.146-6.243,2.146c-1.924,0-3.641-0.44-5.153-1.319c-1.514-0.878-2.61-2.173-3.289-3.885l4.15-2.393
		c0.61,1.9,2.039,2.848,4.292,2.848c1.243,0,2.209-0.301,2.903-0.896c0.689-0.599,1.033-1.415,1.033-2.444
		c0-1.009-0.344-1.817-1.033-2.428c-0.693-0.61-1.66-0.917-2.903-0.917H23.77l-1.863-2.813l4.854-6.332h-9.637v-4.538h15.475v4.011
		L27.988,22.433z"/>
</g>
</svg>
