<?xml version="1.0" encoding="utf-8"?>
<!-- Generator: Adobe Illustrator 16.0.0, SVG Export Plug-In . SVG Version: 6.00 Build 0)  -->
<!DOCTYPE svg PUBLIC "-//W3C//DTD SVG 1.1//EN" "http://www.w3.org/Graphics/SVG/1.1/DTD/svg11.dtd">
<svg version="1.1" id="Layer_1" xmlns="http://www.w3.org/2000/svg" xmlns:xlink="http://www.w3.org/1999/xlink" x="0px" y="0px"
	 width="50px" height="50px" viewBox="0 0 50 50" enable-background="new 0 0 50 50" xml:space="preserve">
<circle fill="#FFFFFF" cx="25" cy="25" r="24.75"/>
<g>
	<path d="M16.896,37.498v-3.606l8.367-8.611c1.867-1.96,2.803-3.594,2.803-4.901c0-0.955-0.302-1.726-0.896-2.31
		c-0.598-0.583-1.36-0.875-2.294-0.875c-1.843,0-3.208,0.957-4.093,2.872l-4.063-2.381c0.771-1.682,1.88-2.964,3.328-3.851
		c1.447-0.887,3.034-1.331,4.76-1.331c2.217,0,4.119,0.693,5.708,2.083c1.586,1.389,2.377,3.261,2.377,5.618
		c-0.003,2.541-1.346,5.15-4.021,7.827l-4.805,4.811h9.212v4.657L16.896,37.498L16.896,37.498z"/>
</g>
</svg>
