<?xml version="1.0" encoding="utf-8"?>
<!-- Generator: Adobe Illustrator 16.0.0, SVG Export Plug-In . SVG Version: 6.00 Build 0)  -->
<!DOCTYPE svg PUBLIC "-//W3C//DTD SVG 1.1//EN" "http://www.w3.org/Graphics/SVG/1.1/DTD/svg11.dtd">
<svg version="1.1" id="Layer_1" xmlns="http://www.w3.org/2000/svg" xmlns:xlink="http://www.w3.org/1999/xlink" x="0px" y="0px"
	 width="58.666px" height="58.667px" viewBox="0 0 58.666 58.667" enable-background="new 0 0 58.666 58.667" xml:space="preserve">
<g>
	<path d="M45.532,58.427H13.134c-7.109,0-12.894-5.784-12.894-12.894v-32.4c0-7.11,5.784-12.894,12.894-12.894h32.398
		c7.109,0,12.894,5.784,12.894,12.894v32.4C58.426,52.644,52.642,58.427,45.532,58.427z M13.134,2.224
		c-6.016,0-10.91,4.894-10.91,10.91v32.4c0,6.016,4.895,10.91,10.91,10.91h32.398c6.016,0,10.91-4.895,10.91-10.91v-32.4
		c0-6.016-4.895-10.91-10.91-10.91H13.134z"/>
</g>
<g id="Layer_2">
	<g id="Layer_1-2">
		<g id="_7rIVJU.tif">
			<path d="M43.455,42.413c-0.089,0.48-0.445,0.866-0.916,0.993c-0.45,0.108-0.922-0.052-1.214-0.41l-4.387-4.385
				c-0.831-0.84-1.657-1.669-2.48-2.493c-0.562,0.368-1.078,0.76-1.636,1.064c-2.457,1.375-5.065,1.898-7.852,1.383
				c-4.053-0.76-6.956-3.04-8.724-6.737c-0.733-1.582-1.09-3.311-1.039-5.053c0.009-1.881,0.486-3.73,1.392-5.38
				c1.697-3.069,4.252-5.05,7.672-5.884c0.489-0.119,0.987-0.19,1.484-0.283h2.424c0.076,0.024,0.155,0.043,0.235,0.055
				c2.214,0.26,4.303,1.158,6.014,2.586c2.415,1.938,3.945,4.769,4.241,7.852c0.308,2.68-0.335,5.383-1.815,7.639
				c-0.23,0.362-0.494,0.704-0.784,1.117c0.09,0.049,0.174,0.107,0.254,0.172c2.165,2.162,4.331,4.323,6.494,6.484
				c0.308,0.263,0.53,0.609,0.646,0.995L43.455,42.413z M36.396,27.013c0.01-5.195-4.193-9.415-9.39-9.424
				c-5.195-0.01-9.415,4.194-9.425,9.389c-0.01,5.195,4.193,9.415,9.39,9.425c0.002,0,0.003,0,0.005,0
				C32.166,36.401,36.379,32.204,36.396,27.013z"/>
		</g>
	</g>
</g>
</svg>
