<?xml version="1.0" encoding="utf-8"?>
<!-- Generator: Adobe Illustrator 16.0.0, SVG Export Plug-In . SVG Version: 6.00 Build 0)  -->
<!DOCTYPE svg PUBLIC "-//W3C//DTD SVG 1.1//EN" "http://www.w3.org/Graphics/SVG/1.1/DTD/svg11.dtd">
<svg version="1.1" id="Layer_1" xmlns="http://www.w3.org/2000/svg" xmlns:xlink="http://www.w3.org/1999/xlink" x="0px" y="0px"
	 width="445.461px" height="58.35px" viewBox="0 0 445.461 58.35" enable-background="new 0 0 445.461 58.35" xml:space="preserve">
<g>
	<g>
		<path fill="#FFFFFF" d="M78.286,46.923V33.977H104.3v-10.09H78.286v-0.061H65.4v33.552h43.397V46.923H78.286z M78.286,11.731
			h30.512V1.338H65.4v10.394H78.286L78.286,11.731z"/>
	</g>
	<g>
		<polygon fill="#FFFFFF" points="193.222,0 178.999,39.508 165.08,0 150.736,0 150.736,0.122 170.794,58.35 187.022,58.35 
			208.174,0 		"/>
	</g>
	<g>
		<polygon fill="#FFFFFF" points="135.723,0 119.799,0 140.829,58.35 155.963,58.35 144.719,25.771 		"/>
	</g>
	<g>
		<path fill="#FFFFFF" d="M51.664,0.973v56.405H40.966l-28.081-34.22v34.22H0V0.973h10.819l28.02,34.28V0.973H51.664z"/>
	</g>
	<g>
		<path fill="#FFFFFF" d="M297.946,46.923V33.977h26.015v-10.09h-26.015v-0.061h-12.885v33.552h43.396V46.923H297.946z
			 M297.946,11.731h30.512V1.338h-43.336v10.394H297.946L297.946,11.731z"/>
	</g>
	<g>
		<path fill="#FFFFFF" d="M271.872,0.973v56.405h-10.697l-28.081-34.281v34.22h-12.886V0.973h10.819l28.02,34.28V0.973H271.872z"/>
	</g>
	<g>
		<path fill="#FFFFFF" d="M343.41,51.786l4.438-9.847c4.741,3.464,11.853,5.896,18.599,5.896c7.719,0,10.88-2.553,10.88-6.018
			c0-10.575-32.761-3.282-32.761-24.251C344.565,7.963,352.284,0,368.33,0c7.112,0,14.345,1.702,19.572,4.984l-4.012,9.907
			c-4.741-2.796-10.15-4.315-15.621-4.437c-7.719,0-10.697,2.917-10.697,6.442c0,10.394,32.761,3.222,32.761,23.947
			c0,9.422-7.841,17.505-23.947,17.505C357.39,58.289,348.395,55.615,343.41,51.786z"/>
	</g>
	<g>
		<path fill="#FFFFFF" d="M398.538,51.786l4.438-9.847c4.741,3.464,11.853,5.896,18.599,5.896c7.72,0,10.88-2.553,10.88-6.018
			c0-10.575-32.761-3.282-32.761-24.251C399.693,7.963,407.412,0,423.459,0c7.111,0,14.344,1.702,19.571,4.984l-4.012,9.907
			c-4.741-2.796-10.15-4.315-15.621-4.437c-7.719,0-10.697,2.917-10.697,6.442c0,10.394,32.761,3.222,32.761,23.947
			c0,9.422-7.779,17.505-23.947,17.505C412.579,58.289,403.583,55.615,398.538,51.786z"/>
	</g>
</g>
</svg>
