<?xml version="1.0" encoding="utf-8"?>
<!-- Generator: Adobe Illustrator 16.0.0, SVG Export Plug-In . SVG Version: 6.00 Build 0)  -->
<!DOCTYPE svg PUBLIC "-//W3C//DTD SVG 1.1//EN" "http://www.w3.org/Graphics/SVG/1.1/DTD/svg11.dtd">
<svg version="1.1" id="Layer_1" xmlns="http://www.w3.org/2000/svg" xmlns:xlink="http://www.w3.org/1999/xlink" x="0px" y="0px"
	 width="58.666px" height="58.667px" viewBox="0 0 58.666 58.667" enable-background="new 0 0 58.666 58.667" xml:space="preserve">
<g>
	<path d="M45.532,58.427H13.134c-7.109,0-12.894-5.784-12.894-12.894v-32.4c0-7.11,5.784-12.894,12.894-12.894h32.398
		c7.109,0,12.894,5.784,12.894,12.894v32.4C58.426,52.644,52.642,58.427,45.532,58.427z M13.134,2.224
		c-6.016,0-10.91,4.894-10.91,10.91v32.4c0,6.016,4.895,10.91,10.91,10.91h32.398c6.016,0,10.91-4.895,10.91-10.91v-32.4
		c0-6.016-4.895-10.91-10.91-10.91H13.134z"/>
</g>
<g id="Layer_2">
	<g id="Layer_1-2">
		<g id="CJuYht.tif">
			<path d="M36.968,15.104c0.62,0.125,1.252,0.212,1.857,0.383c3.703,1.068,6.379,4.284,6.757,8.119
				c0.209,2.225-0.391,4.257-1.401,6.197c-1.24,2.375-2.946,4.392-4.827,6.274c-2.784,2.72-5.851,5.135-9.146,7.206
				c-0.493,0.374-1.176,0.374-1.669,0c-3.886-2.461-7.486-5.254-10.583-8.654c-1.648-1.813-3.089-3.77-4.036-6.05
				c-0.429-0.994-0.706-2.045-0.823-3.121c-0.013-0.081-0.03-0.162-0.054-0.241v-1.462c0.023-0.08,0.043-0.16,0.058-0.242
				c0.414-3.887,3.195-7.111,6.979-8.092c0.553-0.14,1.12-0.215,1.68-0.318h1.402c0.079,0.023,0.16,0.042,0.241,0.056
				c1.934,0.187,3.76,0.974,5.225,2.251c0.241,0.207,0.464,0.427,0.707,0.651c0.072-0.065,0.136-0.118,0.195-0.178
				c1.159-1.174,2.612-2.018,4.207-2.443c0.557-0.151,1.137-0.227,1.706-0.337H36.968z"/>
		</g>
	</g>
</g>
</svg>
